<?xml version="1.0" encoding="UTF-8"?>
<!DOCTYPE svg PUBLIC "-//W3C//DTD SVG 1.1//EN" "http://www.w3.org/Graphics/SVG/1.1/DTD/svg11.dtd">
<svg version="1.2" width="210mm" height="210mm" viewBox="0 0 21000 21000" preserveAspectRatio="xMidYMid" fill-rule="evenodd" stroke-width="28.222" stroke-linejoin="round" xmlns="http://www.w3.org/2000/svg" xmlns:ooo="http://xml.openoffice.org/svg/export" xmlns:xlink="http://www.w3.org/1999/xlink" xmlns:presentation="http://sun.com/xmlns/staroffice/presentation" xmlns:smil="http://www.w3.org/2001/SMIL20/" xmlns:anim="urn:oasis:names:tc:opendocument:xmlns:animation:1.0" xmlns:svg="urn:oasis:names:tc:opendocument:xmlns:svg-compatible:1.0" xml:space="preserve">
 <defs class="ClipPathGroup">
  <clipPath id="presentation_clip_path" clipPathUnits="userSpaceOnUse">
   <rect x="0" y="0" width="21000" height="21000"/>
  </clipPath>
  <clipPath id="presentation_clip_path_shrink" clipPathUnits="userSpaceOnUse">
   <rect x="21" y="21" width="20958" height="20958"/>
  </clipPath>
 </defs>
 <defs class="TextShapeIndex">
  <g ooo:slide="id1" ooo:id-list="id3 id4 id5 id6"/>
 </defs>
 <defs class="EmbeddedBulletChars">
  <g id="bullet-char-template-57356" transform="scale(0.00048828125,-0.00048828125)">
   <path d="M 580,1141 L 1163,571 580,0 -4,571 580,1141 Z"/>
  </g>
  <g id="bullet-char-template-57354" transform="scale(0.00048828125,-0.00048828125)">
   <path d="M 8,1128 L 1137,1128 1137,0 8,0 8,1128 Z"/>
  </g>
  <g id="bullet-char-template-10146" transform="scale(0.00048828125,-0.00048828125)">
   <path d="M 174,0 L 602,739 174,1481 1456,739 174,0 Z M 1358,739 L 309,1346 659,739 1358,739 Z"/>
  </g>
  <g id="bullet-char-template-10132" transform="scale(0.00048828125,-0.00048828125)">
   <path d="M 2015,739 L 1276,0 717,0 1260,543 174,543 174,936 1260,936 717,1481 1274,1481 2015,739 Z"/>
  </g>
  <g id="bullet-char-template-10007" transform="scale(0.00048828125,-0.00048828125)">
   <path d="M 0,-2 C -7,14 -16,27 -25,37 L 356,567 C 262,823 215,952 215,954 215,979 228,992 255,992 264,992 276,990 289,987 310,991 331,999 354,1012 L 381,999 492,748 772,1049 836,1024 860,1049 C 881,1039 901,1025 922,1006 886,937 835,863 770,784 769,783 710,716 594,584 L 774,223 C 774,196 753,168 711,139 L 727,119 C 717,90 699,76 672,76 641,76 570,178 457,381 L 164,-76 C 142,-110 111,-127 72,-127 30,-127 9,-110 8,-76 1,-67 -2,-52 -2,-32 -2,-23 -1,-13 0,-2 Z"/>
  </g>
  <g id="bullet-char-template-10004" transform="scale(0.00048828125,-0.00048828125)">
   <path d="M 285,-33 C 182,-33 111,30 74,156 52,228 41,333 41,471 41,549 55,616 82,672 116,743 169,778 240,778 293,778 328,747 346,684 L 369,508 C 377,444 397,411 428,410 L 1163,1116 C 1174,1127 1196,1133 1229,1133 1271,1133 1292,1118 1292,1087 L 1292,965 C 1292,929 1282,901 1262,881 L 442,47 C 390,-6 338,-33 285,-33 Z"/>
  </g>
  <g id="bullet-char-template-9679" transform="scale(0.00048828125,-0.00048828125)">
   <path d="M 813,0 C 632,0 489,54 383,161 276,268 223,411 223,592 223,773 276,916 383,1023 489,1130 632,1184 813,1184 992,1184 1136,1130 1245,1023 1353,916 1407,772 1407,592 1407,412 1353,268 1245,161 1136,54 992,0 813,0 Z"/>
  </g>
  <g id="bullet-char-template-8226" transform="scale(0.00048828125,-0.00048828125)">
   <path d="M 346,457 C 273,457 209,483 155,535 101,586 74,649 74,723 74,796 101,859 155,911 209,963 273,989 346,989 419,989 480,963 531,910 582,859 608,796 608,723 608,648 583,586 532,535 482,483 420,457 346,457 Z"/>
  </g>
  <g id="bullet-char-template-8211" transform="scale(0.00048828125,-0.00048828125)">
   <path d="M -4,459 L 1135,459 1135,606 -4,606 -4,459 Z"/>
  </g>
  <g id="bullet-char-template-61548" transform="scale(0.00048828125,-0.00048828125)">
   <path d="M 173,740 C 173,903 231,1043 346,1159 462,1274 601,1332 765,1332 928,1332 1067,1274 1183,1159 1299,1043 1357,903 1357,740 1357,577 1299,437 1183,322 1067,206 928,148 765,148 601,148 462,206 346,322 231,437 173,577 173,740 Z"/>
  </g>
 </defs>
 <g>
  <g id="id2" class="Master_Slide">
   <g id="bg-id2" class="Background"/>
   <g id="bo-id2" class="BackgroundObjects"/>
  </g>
 </g>
 <g class="SlideGroup">
  <g>
   <g id="container-id1">
    <g id="id1" class="Slide" clip-path="url(#presentation_clip_path)">
     <g class="Page">
      <g class="com.sun.star.drawing.CustomShape">
       <g id="id3">
        <rect class="BoundingBox" stroke="none" fill="none" x="-3001" y="17999" width="6004" height="6004"/>
        <path fill="rgb(230,233,5)" stroke="none" d="M 3001,21001 C 3001,21527 2862,22045 2599,22501 2336,22957 1957,23336 1501,23599 1045,23862 527,24001 1,24001 -526,24001 -1044,23862 -1500,23599 -1956,23336 -2335,22957 -2598,22501 -2861,22045 -3000,21527 -3000,21001 -3000,20474 -2861,19956 -2598,19500 -2335,19044 -1956,18665 -1500,18402 -1044,18139 -526,18000 0,18000 527,18000 1045,18139 1501,18402 1957,18665 2336,19044 2599,19500 2862,19956 3001,20474 3001,21000 L 3001,21001 Z"/>
        <path fill="none" stroke="rgb(230,233,5)" d="M 3001,21001 C 3001,21527 2862,22045 2599,22501 2336,22957 1957,23336 1501,23599 1045,23862 527,24001 1,24001 -526,24001 -1044,23862 -1500,23599 -1956,23336 -2335,22957 -2598,22501 -2861,22045 -3000,21527 -3000,21001 -3000,20474 -2861,19956 -2598,19500 -2335,19044 -1956,18665 -1500,18402 -1044,18139 -526,18000 0,18000 527,18000 1045,18139 1501,18402 1957,18665 2336,19044 2599,19500 2862,19956 3001,20474 3001,21000 L 3001,21001 Z"/>
       </g>
      </g>
      <g class="com.sun.star.drawing.CustomShape">
       <g id="id4">
        <rect class="BoundingBox" stroke="none" fill="none" x="17999" y="17999" width="6004" height="6004"/>
        <path fill="rgb(230,233,5)" stroke="none" d="M 24001,21001 C 24001,21527 23862,22045 23599,22501 23336,22957 22957,23336 22501,23599 22045,23862 21527,24001 21001,24001 20474,24001 19956,23862 19500,23599 19044,23336 18665,22957 18402,22501 18139,22045 18000,21527 18000,21001 18000,20474 18139,19956 18402,19500 18665,19044 19044,18665 19500,18402 19956,18139 20474,18000 21000,18000 21527,18000 22045,18139 22501,18402 22957,18665 23336,19044 23599,19500 23862,19956 24001,20474 24001,21000 L 24001,21001 Z"/>
        <path fill="none" stroke="rgb(230,233,5)" d="M 24001,21001 C 24001,21527 23862,22045 23599,22501 23336,22957 22957,23336 22501,23599 22045,23862 21527,24001 21001,24001 20474,24001 19956,23862 19500,23599 19044,23336 18665,22957 18402,22501 18139,22045 18000,21527 18000,21001 18000,20474 18139,19956 18402,19500 18665,19044 19044,18665 19500,18402 19956,18139 20474,18000 21000,18000 21527,18000 22045,18139 22501,18402 22957,18665 23336,19044 23599,19500 23862,19956 24001,20474 24001,21000 L 24001,21001 Z"/>
       </g>
      </g>
      <g class="com.sun.star.drawing.CustomShape">
       <g id="id5">
        <rect class="BoundingBox" stroke="none" fill="none" x="-3000" y="-3000" width="6004" height="6004"/>
        <path fill="rgb(230,233,5)" stroke="none" d="M 3002,2 C 3002,528 2863,1046 2600,1502 2337,1958 1958,2337 1502,2600 1046,2863 528,3002 2,3002 -525,3002 -1043,2863 -1499,2600 -1955,2337 -2334,1958 -2597,1502 -2860,1046 -2999,528 -2999,2 -2999,-525 -2860,-1043 -2597,-1499 -2334,-1955 -1955,-2334 -1499,-2597 -1043,-2860 -525,-2999 1,-2999 528,-2999 1046,-2860 1502,-2597 1958,-2334 2337,-1955 2600,-1499 2863,-1043 3002,-525 3002,1 L 3002,2 Z"/>
        <path fill="none" stroke="rgb(230,233,5)" d="M 3002,2 C 3002,528 2863,1046 2600,1502 2337,1958 1958,2337 1502,2600 1046,2863 528,3002 2,3002 -525,3002 -1043,2863 -1499,2600 -1955,2337 -2334,1958 -2597,1502 -2860,1046 -2999,528 -2999,2 -2999,-525 -2860,-1043 -2597,-1499 -2334,-1955 -1955,-2334 -1499,-2597 -1043,-2860 -525,-2999 1,-2999 528,-2999 1046,-2860 1502,-2597 1958,-2334 2337,-1955 2600,-1499 2863,-1043 3002,-525 3002,1 L 3002,2 Z"/>
       </g>
      </g>
      <g class="com.sun.star.drawing.CustomShape">
       <g id="id6">
        <rect class="BoundingBox" stroke="none" fill="none" x="18000" y="-3000" width="6004" height="6004"/>
        <path fill="rgb(230,233,5)" stroke="none" d="M 24002,2 C 24002,528 23863,1046 23600,1502 23337,1958 22958,2337 22502,2600 22046,2863 21528,3002 21002,3002 20475,3002 19957,2863 19501,2600 19045,2337 18666,1958 18403,1502 18140,1046 18001,528 18001,2 18001,-525 18140,-1043 18403,-1499 18666,-1955 19045,-2334 19501,-2597 19957,-2860 20475,-2999 21001,-2999 21528,-2999 22046,-2860 22502,-2597 22958,-2334 23337,-1955 23600,-1499 23863,-1043 24002,-525 24002,1 L 24002,2 Z"/>
        <path fill="none" stroke="rgb(230,233,5)" d="M 24002,2 C 24002,528 23863,1046 23600,1502 23337,1958 22958,2337 22502,2600 22046,2863 21528,3002 21002,3002 20475,3002 19957,2863 19501,2600 19045,2337 18666,1958 18403,1502 18140,1046 18001,528 18001,2 18001,-525 18140,-1043 18403,-1499 18666,-1955 19045,-2334 19501,-2597 19957,-2860 20475,-2999 21001,-2999 21528,-2999 22046,-2860 22502,-2597 22958,-2334 23337,-1955 23600,-1499 23863,-1043 24002,-525 24002,1 L 24002,2 Z"/>
       </g>
      </g>
     </g>
    </g>
   </g>
  </g>
 </g>
</svg>